<?xml version="1.0" standalone="no"?>
<!DOCTYPE svg PUBLIC "-//W3C//DTD SVG 20010904//EN"
 "http://www.w3.org/TR/2001/REC-SVG-20010904/DTD/svg10.dtd">
<svg version="1.0" xmlns="http://www.w3.org/2000/svg"
 width="1024.000000pt" height="1024.000000pt" viewBox="0 0 1024.000000 1024.000000"
 preserveAspectRatio="xMidYMid meet">
<metadata>
Created by potrace 1.14, written by Peter Selinger 2001-2017
</metadata>
<g transform="translate(0.000000,1024.000000) scale(0.100000,-0.100000)"
fill="#000000" stroke="none">
<path d="M3155 7635 c-29 -28 -31 -54 -10 -95 39 -75 171 -26 151 56 -17 64
-95 86 -141 39z"/>
<path d="M3984 7637 c-34 -29 -37 -79 -7 -108 19 -20 32 -20 354 -19 l334 1
24 23 c20 20 22 30 17 60 -12 64 -23 66 -380 66 l-315 0 -27 -23z"/>
<path d="M5065 7635 c-60 -59 6 -159 82 -123 38 18 56 58 43 94 -22 57 -83 72
-125 29z"/>
<path d="M5630 7635 c-33 -35 -31 -81 5 -113 51 -44 125 -10 125 58 0 72 -81
107 -130 55z"/>
<path d="M5930 7640 c-20 -20 -28 -83 -12 -106 15 -22 54 -36 88 -30 63 12 85
86 39 131 -31 32 -86 34 -115 5z"/>
<path d="M6951 7636 c-32 -34 -31 -83 3 -113 15 -12 36 -23 47 -23 28 0 75 26
83 45 32 84 -73 155 -133 91z"/>
<path d="M3510 7551 c-94 -30 -158 -101 -175 -194 l-7 -37 -72 0 c-80 0 -115
-14 -133 -52 -17 -34 -1 -81 33 -97 17 -7 137 -11 385 -11 415 0 418 1 419 78
0 22 -8 41 -25 57 -20 21 -34 25 -84 25 l-60 0 -15 53 c-30 102 -104 169 -201
181 -22 3 -51 2 -65 -3z"/>
<path d="M6591 7543 c-63 -22 -124 -87 -140 -148 -7 -28 -15 -56 -17 -62 -2
-9 -25 -13 -69 -13 -57 0 -69 -3 -90 -25 -32 -31 -34 -84 -4 -111 20 -18 41
-19 398 -19 207 0 388 3 403 7 56 16 51 116 -7 138 -15 6 -56 10 -93 10 l-67
0 -17 59 c-24 79 -85 143 -159 165 -63 19 -81 19 -138 -1z"/>
<path d="M4970 7310 c-188 -26 -341 -71 -497 -145 -149 -70 -258 -147 -374
-264 -329 -330 -464 -766 -364 -1177 33 -139 58 -203 128 -326 73 -131 163
-245 259 -330 178 -158 268 -197 813 -349 185 -52 347 -103 383 -121 79 -40
159 -118 197 -194 27 -54 30 -68 30 -165 0 -102 -1 -108 -38 -181 -88 -179
-280 -270 -480 -229 -131 28 -251 120 -309 240 -29 57 -32 74 -36 177 l-5 114
-489 0 -490 0 7 -122 c8 -155 19 -219 57 -338 110 -344 356 -623 701 -796 139
-70 302 -118 510 -149 l37 -6 0 -174 0 -175 -234 0 -234 0 -11 44 c-35 141
-187 249 -329 232 -64 -8 -143 -47 -178 -89 l-25 -29 -43 38 c-24 22 -45 42
-45 46 -1 5 19 52 43 105 58 131 80 192 73 200 -4 3 -85 7 -182 7 -170 1 -174
2 -169 21 4 11 24 70 46 130 21 61 40 114 41 119 1 6 -20 10 -48 11 -27 0 -78
2 -111 3 l-61 2 -7 64 c-3 35 -17 95 -30 133 -30 88 -117 263 -131 263 -5 0
-47 -38 -92 -85 -97 -101 -155 -205 -172 -312 -8 -46 -11 -227 -9 -558 l3
-490 2004 -3 c1597 -2 2006 0 2013 10 4 7 8 231 8 498 0 535 -4 571 -61 689
-22 44 -61 94 -128 163 l-97 101 -62 -130 c-67 -142 -92 -221 -92 -295 l0 -48
-111 0 c-101 0 -111 -2 -106 -17 3 -10 20 -65 37 -123 18 -58 36 -112 41 -121
7 -14 -11 -17 -169 -23 -97 -4 -179 -9 -180 -11 -6 -5 88 -236 111 -274 16
-27 18 -35 6 -42 -8 -5 -16 -9 -19 -9 -3 0 -20 -13 -37 -29 l-32 -29 -41 39
c-58 55 -102 72 -190 72 -57 1 -87 -5 -127 -22 -82 -36 -159 -131 -178 -218
l-7 -33 -234 0 -234 0 0 174 c0 190 -1 186 62 186 16 0 76 9 131 21 421 85
785 354 977 722 96 183 135 357 134 597 -1 152 -3 175 -32 283 -97 368 -355
670 -687 804 -68 27 -336 106 -740 219 -189 52 -288 122 -348 243 -29 60 -32
73 -32 161 1 87 4 101 35 165 60 125 182 219 324 247 75 14 184 -1 262 -38
131 -62 234 -202 242 -331 l4 -63 495 0 495 0 -7 73 c-10 104 -42 258 -69 331
-178 473 -561 791 -1076 896 -119 24 -320 34 -420 20z m-1600 -3733 c13 -37
20 -82 20 -131 l0 -75 -42 -29 c-24 -16 -52 -39 -62 -51 -34 -38 -39 -26 -33
87 5 109 23 180 59 240 24 40 32 35 58 -41z m3563 12 c34 -67 50 -164 42 -250
l-7 -65 -28 26 c-15 14 -44 37 -64 50 l-36 25 0 82 c0 86 32 197 54 190 6 -2
23 -28 39 -58z m-3377 -326 c-3 -10 -15 -53 -26 -96 -24 -96 -60 -164 -114
-217 -41 -41 -142 -98 -153 -87 -3 4 -1 45 5 92 19 147 77 228 210 296 66 33
86 36 78 12z m3214 -26 c131 -74 189 -159 199 -294 5 -57 3 -83 -4 -83 -23 0
-131 72 -163 108 -19 20 -44 57 -57 82 -22 43 -75 200 -75 221 0 14 35 2 100
-34z m-181 -261 c51 -26 94 -65 122 -111 24 -38 24 -37 -11 -64 l-31 -22 -37
30 c-21 16 -63 41 -94 54 -56 25 -128 101 -128 135 0 22 120 7 179 -22z
m-2798 -35 c-34 -50 -48 -62 -89 -75 -27 -9 -66 -34 -89 -55 l-41 -39 -32 27
-33 27 22 41 c40 80 134 131 244 132 l58 1 -40 -59z m-381 -233 c40 -20 90
-76 90 -99 0 -5 -54 -9 -120 -9 l-120 0 0 65 0 65 53 0 c35 0 68 -8 97 -22z
m423 8 c39 -16 87 -70 87 -97 0 -18 -8 -19 -135 -19 l-135 0 0 24 c0 48 69
105 128 106 12 0 37 -6 55 -14z m474 -2 c34 -17 83 -76 83 -101 0 -10 -36 -13
-150 -13 -140 0 -150 1 -150 19 0 10 10 31 22 46 49 63 125 82 195 49z m1763
-3 c36 -18 80 -73 80 -97 0 -11 -31 -14 -155 -14 l-155 0 11 28 c33 86 138
127 219 83z m457 -7 c25 -16 48 -48 58 -81 l6 -23 -140 0 c-92 0 -141 4 -141
10 0 38 58 101 105 113 29 8 86 -2 112 -19z m441 -41 l3 -63 -116 0 c-79 0
-115 4 -115 11 0 27 44 79 83 98 30 15 57 21 92 19 l50 -3 3 -62z"/>
<path d="M3185 6978 c-31 -17 -45 -39 -45 -74 0 -66 87 -98 135 -49 38 37 30
97 -16 120 -33 18 -47 18 -74 3z"/>
<path d="M3533 6980 c-47 -19 -57 -87 -18 -125 48 -49 125 -19 125 49 0 58
-54 96 -107 76z"/>
<path d="M6643 6982 c-29 -4 -63 -48 -63 -79 0 -29 42 -73 69 -73 35 0 69 22
82 51 23 57 -24 111 -88 101z"/>
<path d="M6952 6957 c-69 -74 42 -174 113 -102 30 30 32 64 4 99 -27 35 -86
36 -117 3z"/>
<path d="M3315 6714 c-41 -45 -28 -102 28 -123 32 -13 83 3 97 29 45 84 -61
163 -125 94z"/>
<path d="M6793 6714 c-20 -20 -24 -31 -19 -57 4 -18 15 -41 26 -51 44 -44 130
-5 130 59 0 69 -86 100 -137 49z"/>
<path d="M3164 6406 c-50 -22 -60 -78 -21 -114 21 -20 34 -22 149 -22 125 0
127 0 147 26 27 35 26 57 -3 91 -23 27 -28 28 -132 30 -78 2 -118 -1 -140 -11z"/>
<path d="M6814 6406 c-48 -21 -60 -80 -24 -116 18 -18 33 -20 148 -20 121 0
130 1 150 23 39 41 25 97 -29 116 -45 15 -207 13 -245 -3z"/>
<path d="M3291 6074 c-12 -15 -21 -37 -21 -49 0 -12 9 -34 21 -49 16 -20 29
-26 60 -26 50 0 79 27 79 74 0 69 -97 104 -139 50z"/>
<path d="M6809 6081 c-17 -13 -23 -29 -23 -56 0 -47 31 -75 83 -75 73 0 106
76 56 125 -30 31 -83 33 -116 6z"/>
<path d="M4980 6018 c-11 -12 -20 -35 -20 -52 0 -66 27 -76 198 -76 127 0 140
2 157 20 11 12 19 36 19 55 0 19 -8 43 -19 55 -17 18 -30 20 -166 20 -140 0
-149 -1 -169 -22z"/>
<path d="M3165 5759 c-51 -29 -60 -85 -20 -124 31 -32 66 -32 104 1 37 31 40
63 9 98 -27 30 -65 40 -93 25z"/>
<path d="M5590 5750 c-27 -27 -27 -83 2 -110 22 -20 61 -26 93 -14 24 10 46
60 39 89 -13 53 -95 74 -134 35z"/>
<path d="M5976 5749 c-34 -27 -36 -77 -3 -107 23 -22 29 -22 314 -22 269 0
292 1 314 19 17 13 23 29 23 56 0 27 -6 43 -23 56 -21 18 -45 19 -311 19 -276
0 -288 -1 -314 -21z"/>
<path d="M6805 5745 c-29 -28 -32 -70 -9 -103 14 -21 22 -22 142 -22 151 0
172 8 172 70 0 30 -6 43 -26 59 -24 18 -41 21 -141 21 -108 0 -115 -1 -138
-25z"/>
<path d="M6401 5404 c-29 -37 -26 -70 9 -106 25 -24 36 -29 58 -23 42 10 62
34 62 75 0 73 -86 109 -129 54z"/>
<path d="M3243 5366 c-58 -27 -107 -85 -123 -148 -6 -21 -10 -71 -8 -111 l3
-72 232 -3 232 -2 7 35 c8 45 -2 125 -23 176 -8 22 -37 59 -63 82 -79 71 -166
85 -257 43z"/>
<path d="M6795 5376 c-46 -20 -94 -64 -118 -110 -17 -33 -21 -59 -22 -136 l0
-95 230 0 230 0 3 77 c2 62 -2 88 -19 128 -23 55 -82 114 -135 136 -42 17
-129 18 -169 0z"/>
<path d="M3140 4800 c-27 -27 -27 -83 2 -110 21 -19 33 -20 469 -20 l448 0 20
26 c28 35 26 69 -4 99 l-24 25 -446 0 c-432 0 -446 -1 -465 -20z"/>
<path d="M6882 4797 c-31 -33 -29 -80 4 -106 22 -17 41 -21 105 -21 95 0 119
16 119 79 0 57 -24 71 -125 71 -72 0 -84 -3 -103 -23z"/>
<path d="M4372 4664 c-16 -11 -22 -25 -22 -53 0 -64 16 -71 168 -71 l131 0 16
30 c19 36 11 75 -18 95 -31 22 -244 21 -275 -1z"/>
<path d="M3325 4538 c-51 -27 -59 -75 -19 -114 28 -29 65 -27 98 6 50 49 -17
142 -79 108z"/>
<path d="M6810 4530 c-41 -41 -14 -130 41 -130 77 0 104 113 34 140 -38 14
-53 12 -75 -10z"/>
<path d="M4945 4348 c-51 -27 -60 -84 -20 -123 23 -24 28 -25 173 -25 136 0
152 2 176 21 37 29 37 89 0 118 -24 19 -40 21 -168 21 -83 0 -149 -5 -161 -12z"/>
<path d="M3164 4230 c-26 -10 -54 -48 -54 -71 0 -9 9 -28 21 -43 19 -24 26
-26 95 -26 61 0 78 4 94 20 35 35 22 92 -27 118 -25 14 -98 15 -129 2z"/>
<path d="M6823 4230 c-53 -22 -68 -106 -23 -130 10 -6 77 -10 148 -10 112 0
131 2 145 18 23 25 21 74 -2 103 -18 22 -27 24 -133 26 -62 2 -123 -1 -135 -7z"/>
</g>
</svg>
